<?xml version="1.0" encoding="utf-8"?>
<!-- Generator: Adobe Illustrator 25.2.0, SVG Export Plug-In . SVG Version: 6.00 Build 0)  -->
<svg version="1.1" id="Layer_1" xmlns="http://www.w3.org/2000/svg" xmlns:xlink="http://www.w3.org/1999/xlink" x="0px" y="0px"
	 viewBox="0 0 183.9 39.4" style="enable-background:new 0 0 183.9 39.4;" xml:space="preserve">
<style type="text/css">
	.st0{fill-rule:evenodd;clip-rule:evenodd;fill:#231F20;}
	.st1{clip-path:url(#SVGID_2_);fill:url(#SVGID_3_);}
	.st2{clip-path:url(#SVGID_5_);fill:url(#SVGID_6_);}
	.st3{clip-path:url(#SVGID_8_);fill:url(#SVGID_9_);}
	.st4{clip-path:url(#SVGID_11_);fill:url(#SVGID_12_);}
	.st5{fill:#C80010;}
	.st6{fill:#231F20;}
</style>
<g transform="translate(-37.917 -36.885)">
	<path class="st0" d="M81.9,73.2c-11.5,0-21.4-6.3-25.9-17.1c-1.5-3.1-2.5-7.9-2.5-11.7c0-1.9,0.2-4.2,0.6-5.9h0v0
		c0-0.5-0.4-0.9-0.9-0.9c-5.7-0.8-12,0.3-14.2,1.1c-0.5,0.2-0.8,0.4-0.9,1.1c0,0-0.2,2.1-0.2,3.5c0,18.2,14.8,33,33.1,33
		c5,0,10-1.1,14.5-3.3C84.4,73.1,83.1,73.2,81.9,73.2"/>
	<g>
		<defs>
			<path id="SVGID_1_" d="M47.3,37.3c-0.1,0.7-0.2,2-0.2,3c0,18.2,14.8,33,33.1,33c1.8,0,3.5-0.1,5.2-0.4c0,0,0,0,0.1,0
				c-1.2,0.2-2.4,0.3-3.6,0.3c-11.5,0-21.4-6.3-25.9-17.1c-1.5-3.1-2.5-7.9-2.5-11.7c0-1.9,0.2-4.2,0.6-5.9h0v0
				c0-0.5-0.4-0.9-0.9-0.9c-1.4-0.2-2.8-0.3-4.3-0.3C48.5,37.3,47.9,37.3,47.3,37.3"/>
		</defs>
		<clipPath id="SVGID_2_">
			<use xlink:href="#SVGID_1_"  style="overflow:visible;"/>
		</clipPath>
		
			<linearGradient id="SVGID_3_" gradientUnits="userSpaceOnUse" x1="-853.9546" y1="31.4401" x2="-853.3785" y2="31.4401" gradientTransform="matrix(66.6976 0 0 66.6976 57003.8672 -2041.6495)">
			<stop  offset="0" style="stop-color:#6E6F71"/>
			<stop  offset="0.339" style="stop-color:#231F20"/>
			<stop  offset="1" style="stop-color:#231F20"/>
		</linearGradient>
		<path class="st1" d="M47.1,37.3h38.4v36.1H47.1V37.3z"/>
	</g>
	<g>
		<path class="st0" d="M104.2,42.8c0,0,0-0.6-0.7-0.9c-1.2-0.5-2.9-0.7-4.1-0.6c-0.5,0.1-0.7,0.3-0.7,0.9c0.1,0.8,0.1,1.4,0.1,2.1
			c0,9.1-4.9,17-12.3,20.8c0,0-0.2,0.1-0.2,0.1c-4.7,2.1-9,1.3-12.2,0c-4.5-1.4-7.9-5.9-7.9-11.1c0-6.4,5-11.6,11.1-11.6
			c6.1,0,11.1,5.2,11.1,11.6c0,5.5-3.6,10.1-8.5,11.3c2.6-0.3,4.6-0.9,4.7-1c3.6-1.4,5.4-4.5,5.8-5.9c0.6-1.7,0.9-3.5,0.9-5.3
			c0-9-7.1-16.3-15.8-16.3c-8.7,0-15.8,7.3-15.8,16.3c0,4.4,1.7,8.4,4.4,11.3c2.6,2.7,6.1,4.4,7.1,4.8c3.3,1.5,6.9,2.4,10.5,2.4
			c2.8,0,5.5-0.5,8.1-1.4c8.4-5.8,13.9-15.4,14.2-26.2C104.2,43.8,104.2,43.1,104.2,42.8"/>
	</g>
	<g>
		<defs>
			<path id="SVGID_4_" d="M88.5,54.2c0,5.5-3.6,10.1-8.5,11.3c2.6-0.3,4.6-0.9,4.7-1c2.6-1,4.2-2.9,5.1-4.4c0.3-1.1,0.5-2.3,0.5-3.4
				c0-3.1-1.2-6.1-3.4-8.4C88,50.1,88.5,52.1,88.5,54.2"/>
		</defs>
		<clipPath id="SVGID_5_">
			<use xlink:href="#SVGID_4_"  style="overflow:visible;"/>
		</clipPath>
		
			<linearGradient id="SVGID_6_" gradientUnits="userSpaceOnUse" x1="-828.0217" y1="42.6101" x2="-827.4457" y2="42.6101" gradientTransform="matrix(17.9603 0 0 17.9603 14951.5391 -708.4092)">
			<stop  offset="0" style="stop-color:#6E6F71"/>
			<stop  offset="0.285" style="stop-color:#6E6F71"/>
			<stop  offset="1" style="stop-color:#231F20"/>
		</linearGradient>
		<path class="st2" d="M80,48.3h10.3v17.2H80V48.3z"/>
	</g>
	<g>
		<g>
			<defs>
				<path id="SVGID_7_" d="M59.9,53.2c0,4.3,1.6,8.3,4.3,11.2c-1.6-2.6-2.4-5.6-2.4-8.7c0-9,7.1-16.3,15.8-16.3
					c4.5,0,8.6,2,11.5,5.1c-2.8-4.6-7.7-7.6-13.3-7.6C67,36.9,59.9,44.2,59.9,53.2"/>
			</defs>
			<clipPath id="SVGID_8_">
				<use xlink:href="#SVGID_7_"  style="overflow:visible;"/>
			</clipPath>
			
				<linearGradient id="SVGID_9_" gradientUnits="userSpaceOnUse" x1="-857.9221" y1="13.6499" x2="-857.3445" y2="13.6499" gradientTransform="matrix(0 47.6567 -47.6567 0 724.9521 40922.5781)">
				<stop  offset="0" style="stop-color:#6E6F71"/>
				<stop  offset="0.339" style="stop-color:#231F20"/>
				<stop  offset="1" style="stop-color:#231F20"/>
			</linearGradient>
			<path class="st3" d="M59.9,36.9H89v27.5H59.9V36.9z"/>
		</g>
	</g>
	<g>
		<g>
			<defs>
				<path id="SVGID_10_" d="M100.1,41.3c-0.2,0-0.4,0-0.6,0c-0.5,0.1-0.7,0.3-0.7,0.9c0.1,0.7,0.1,1.3,0.1,1.9l0,0.2
					c0,9.1-4.9,17-12.3,20.8l-0.1,0c0,0-0.1,0-0.1,0c-1.6,0.7-3.3,1.1-5,1.2c0.4,0,0.7,0,1.1,0c11.2-0.2,20.3-14,21.8-22.9
					c0-0.3,0-0.7,0-0.9c0,0,0-0.6-0.7-0.9c-0.8-0.3-1.7-0.5-2.6-0.6h0C100.6,41.3,100.3,41.3,100.1,41.3"/>
			</defs>
			<clipPath id="SVGID_11_">
				<use xlink:href="#SVGID_10_"  style="overflow:visible;"/>
			</clipPath>
			
				<linearGradient id="SVGID_12_" gradientUnits="userSpaceOnUse" x1="-864.1247" y1="14.6748" x2="-863.5471" y2="14.6748" gradientTransform="matrix(-23.2113 49.7767 -49.7767 -23.2113 -19227.6582 43393.8477)">
				<stop  offset="0" style="stop-color:#6E6F71"/>
				<stop  offset="0.982" style="stop-color:#231F20"/>
				<stop  offset="1" style="stop-color:#231F20"/>
			</linearGradient>
			<path class="st4" d="M113.9,45.8l-13.7,29.5L71.7,62.1l13.7-29.5L113.9,45.8z"/>
		</g>
	</g>
	<g>
		<g>
			<path class="st5" d="M210.1,63.8l0.6-3.5h4.3c0.1,0,1.9,0,2.2-1.5c0.1-0.7-1.1-1.6-2.3-2.5c-1.9-1.3-4.2-3-3.7-5.5
				c0.5-2.9,3.1-4.8,6.4-4.8h4.4l-0.6,3.5H217c-0.1,0-2,0-2.2,1.4c-0.1,0.7,1.1,1.6,2.3,2.5c1.9,1.4,4.2,3,3.8,5.5
				c-0.5,2.9-3.1,4.8-6.4,4.8L210.1,63.8L210.1,63.8z M197.8,63.8l0.6-3.5h4.3c0.1,0,1.9,0,2.2-1.5c0.1-0.7-1.1-1.6-2.3-2.5
				c-1.9-1.3-4.2-3-3.7-5.5c0.5-2.9,3.1-4.8,6.4-4.8h4.4l-0.6,3.5h-4.2c-0.1,0-2,0-2.2,1.4c-0.1,0.7,1.1,1.6,2.3,2.5
				c1.9,1.4,4.2,3,3.8,5.5c-0.5,2.9-3.1,4.8-6.4,4.8L197.8,63.8L197.8,63.8z M190.7,63.8c-1.2,0-2.9-0.4-3.9-1.7
				c-0.8-1-1.1-2.2-0.8-3.7c0-0.2,1.3-7.1,1.3-7.1c0.7-3.8,4.2-5.2,6.5-5.2h4.4l-0.6,3.5h-4.3c-1,0.1-2.3,0.4-2.5,1.9l-0.3,1.7
				l5.2,0l-0.6,3.5l-5.1,0c-0.1,0.6-0.3,1.8-0.4,1.9c-0.1,0.5,0,0.9,0.2,1.2c0.4,0.4,1.1,0.6,1.5,0.6h4.4l-0.6,3.5L190.7,63.8
				L190.7,63.8z M179,63.8l-2.5-6.5H176l-1.1,6.5h-3.5l3.1-17.7h5.5c0.1,0,2.5,0,3.9,1.7c0.8,1,1.1,2.4,0.8,4
				c-0.6,3.3-2.9,4.6-4.4,5.1l2.6,6.8L179,63.8L179,63.8z M176.6,53.9l2.2,0c0.6-0.1,2.1-0.4,2.5-2.2c0.1-0.6,0-1.1-0.3-1.5
				c-0.5-0.6-1.4-0.6-1.4-0.6h-2.2C177.4,49.6,176.6,53.9,176.6,53.9z M158,63.8l3.1-17.7h5.5c0.1,0,2.5,0,3.9,1.7
				c0.8,1,1.1,2.4,0.8,4c-1,5.5-6.5,5.5-6.5,5.5h-2.2l-1.1,6.5L158,63.8L158,63.8z M165.3,53.9c0.1,0,2.2,0,2.6-2.2
				c0.1-0.6,0-1.1-0.3-1.5c-0.5-0.6-1.4-0.6-1.4-0.6H164l-0.7,4.3C163.2,53.9,165.3,53.9,165.3,53.9z M152.2,63.8l-1.7-5.7l-3.8,5.7
				h-3.9l5.8-8.9l-2.7-8.8h3.8l1.8,5.7l3.7-5.7h4l-5.9,8.9l2.7,8.8L152.2,63.8L152.2,63.8z M137.6,63.8c-1.2,0-2.9-0.4-3.9-1.7
				c-0.8-1-1.1-2.2-0.8-3.7l1.3-7.1c0.7-3.8,4.2-5.2,6.5-5.2h4.4l-0.6,3.5H140c-1,0.1-2.3,0.4-2.5,1.9l-0.3,1.7l5.2,0l-0.6,3.5
				l-5.1,0c-0.1,0.6-0.3,1.8-0.4,1.9c-0.1,0.5,0,0.9,0.2,1.2c0.4,0.4,1.1,0.6,1.5,0.6h4.4l-0.6,3.5L137.6,63.8L137.6,63.8z"/>
		</g>
		<g>
			<path class="st6" d="M126.2,53.9c0.1,0,2.2,0,2.6-2.2c0.1-0.6,0-1.1-0.3-1.5c-0.5-0.6-1.4-0.6-1.4-0.6h-2.2l-0.7,4.3
				C124.2,53.9,126.2,53.9,126.2,53.9z M118.9,63.8l3.1-17.7h5.5c0.1,0,2.5,0,3.9,1.7c0.8,1,1.1,2.4,0.8,4c-1,5.5-6.5,5.5-6.5,5.5
				h-2.2l-1.1,6.5L118.9,63.8L118.9,63.8z M108.6,63.8l3.1-17.7h3.5l-2.5,14.2h5.4l-0.6,3.5H108.6z"/>
		</g>
	</g>
</g>
</svg>
